<?xml version="1.0"?>
<svg xmlns="http://www.w3.org/2000/svg" xmlns:xlink="http://www.w3.org/1999/xlink" version="1.1" id="Capa_1" x="0px" y="0px" viewBox="0 0 480 480" style="enable-background:new 0 0 480 480;" xml:space="preserve" width="512px" height="512px"><g><g>
	<g>
		<g>
			<path d="M240,0C107.452,0,0,107.452,0,240s107.452,240,240,240c132.486-0.15,239.85-107.514,240-240C480,107.452,372.548,0,240,0     z M240,464C116.288,464,16,363.712,16,240S116.288,16,240,16c123.653,0.141,223.859,100.347,224,224     C464,363.712,363.712,464,240,464z" data-original="#000000" class="active-path" data-old_color="#000000" fill="#FFFFFF"/>
			<path d="M240,192c-26.51,0-48,21.49-48,48c0,26.51,21.49,48,48,48c26.499-0.026,47.974-21.501,48-48     C288,213.49,266.51,192,240,192z M240,272c-17.673,0-32-14.327-32-32s14.327-32,32-32c17.673,0,32,14.327,32,32     S257.673,272,240,272z" data-original="#000000" class="active-path" data-old_color="#000000" fill="#FFFFFF"/>
			<path d="M376,192c-26.51,0-48,21.49-48,48c0,26.51,21.49,48,48,48c26.499-0.026,47.974-21.501,48-48     C424,213.49,402.51,192,376,192z M376,272c-17.673,0-32-14.327-32-32s14.327-32,32-32c17.673,0,32,14.327,32,32     S393.673,272,376,272z" data-original="#000000" class="active-path" data-old_color="#000000" fill="#FFFFFF"/>
			<path d="M104,192c-26.51,0-48,21.49-48,48c0,26.51,21.49,48,48,48c26.499-0.026,47.974-21.501,48-48     C152,213.49,130.51,192,104,192z M104,272c-17.673,0-32-14.327-32-32s14.327-32,32-32s32,14.327,32,32S121.673,272,104,272z" data-original="#000000" class="active-path" data-old_color="#000000" fill="#FFFFFF"/>
		</g>
	</g>
</g></g> </svg>
